<?xml version="1.0" standalone="no"?>
<!DOCTYPE svg PUBLIC "-//W3C//DTD SVG 20010904//EN"
 "http://www.w3.org/TR/2001/REC-SVG-20010904/DTD/svg10.dtd">
<svg version="1.0" xmlns="http://www.w3.org/2000/svg"
 width="512.000000pt" height="512.000000pt" viewBox="0 0 512.000000 512.000000"
 preserveAspectRatio="xMidYMid meet">
<metadata>
Created by potrace 1.14, written by Peter Selinger 2001-2017
</metadata>
<g transform="translate(0.000000,512.000000) scale(0.100000,-0.100000)"
fill="#000000" stroke="none">
<path d="M1255 4594 c-28 -7 -53 -13 -57 -14 -3 0 -31 -23 -62 -50 l-55 -51
-93 17 c-129 24 -370 25 -456 1 -140 -38 -234 -104 -297 -208 -58 -95 -84
-245 -63 -374 4 -27 10 -65 13 -84 23 -146 170 -464 319 -691 304 -463 708
-901 1271 -1376 403 -340 904 -676 1340 -899 340 -174 609 -271 940 -341 17
-4 100 -9 185 -11 134 -4 167 -2 244 16 166 40 270 117 330 245 19 39 37 84
40 99 4 17 16 31 31 37 43 16 112 89 134 140 48 112 19 236 -73 317 -141 124
-362 71 -437 -104 -54 -126 11 -293 136 -352 50 -23 51 -27 31 -74 -31 -74
-118 -134 -236 -161 -65 -16 -249 -16 -330 -1 -196 36 -345 80 -545 160 -143
57 -445 199 -445 209 0 2 35 -5 78 -15 124 -29 169 -34 302 -34 138 0 173 5
297 41 272 79 518 284 646 539 56 111 100 242 98 290 0 2 5 19 10 37 10 34 13
226 5 288 -42 300 -191 557 -425 733 -161 121 -375 201 -560 210 -39 2 -73 6
-75 8 -2 2 -6 42 -10 89 -14 185 -46 308 -116 444 -153 299 -425 505 -755 572
-105 22 -311 22 -400 0 -11 -2 -42 -9 -69 -15 -294 -68 -578 -304 -709 -591
-68 -148 -99 -284 -98 -427 1 -51 -3 -73 -12 -74 -142 -12 -185 -18 -271 -40
-44 -11 -98 -29 -120 -40 -23 -11 -65 -23 -93 -26 -52 -6 -54 -5 -96 38 -55
56 -183 258 -262 414 -126 249 -166 383 -162 550 2 76 7 100 30 147 59 121
185 178 387 178 47 0 96 -1 110 -4 14 -2 62 -10 108 -17 45 -7 82 -13 82 -13
1 -1 3 -19 7 -41 18 -130 129 -227 262 -231 76 -3 128 15 189 63 63 52 96 121
96 208 0 188 -161 316 -339 269z m119 -159 c84 -40 88 -168 6 -210 -60 -31
-137 -10 -165 45 -55 106 51 216 159 165z m3443 -3165 c60 -21 86 -109 52
-176 -17 -34 -72 -58 -120 -51 -108 14 -141 153 -50 214 37 25 72 29 118 13z"/>
<path d="M519 2758 c-80 -97 -165 -239 -156 -262 7 -18 447 -19 447 -1 0 6
-15 29 -33 51 -18 21 -64 77 -101 124 -96 120 -105 130 -114 130 -4 0 -24 -19
-43 -42z"/>
<path d="M311 2318 c-20 -7 -26 -24 -37 -108 -15 -107 -70 -95 434 -96 269 -1
445 3 448 8 4 6 -37 53 -89 105 l-95 96 -322 1 c-177 1 -329 -2 -339 -6z"/>
<path d="M293 1952 c-13 -2 -23 -7 -23 -12 0 -20 29 -158 39 -182 l11 -28 625
0 c502 0 626 3 623 13 -2 7 -48 53 -103 102 -55 49 -103 93 -106 98 -6 8
-1014 16 -1066 9z"/>
<path d="M396 1562 c-5 -9 71 -131 116 -185 l24 -29 734 1 c404 0 745 0 758 1
36 0 26 16 -49 70 -39 28 -98 74 -132 101 l-61 49 -692 0 c-381 0 -695 -4
-698 -8z"/>
<path d="M750 1177 c0 -15 21 -28 122 -79 161 -80 297 -109 493 -104 142 4
153 5 253 32 88 23 138 29 257 28 122 -1 144 -3 295 -38 80 -18 137 -24 240
-24 74 -1 141 3 149 7 10 6 -25 34 -124 99 l-138 91 -773 0 c-593 0 -774 -3
-774 -12z"/>
</g>
</svg>
